<?xml version="1.0" encoding="UTF-8"?>
<svg xmlns="http://www.w3.org/2000/svg" xmlns:xlink="http://www.w3.org/1999/xlink" width="400px" height="400px" viewBox="0 0 400 400" version="1.1">
<g id="surface1">
<path style="fill:none;stroke-width:2;stroke-linecap:round;stroke-linejoin:round;stroke:rgb(0%,0%,0%);stroke-opacity:1;stroke-miterlimit:4;" d="M 1.999922 16.000078 L 1.999922 4.000078 C 1.999922 2.895469 2.895469 1.999922 4.000078 1.999922 L 15 1.999922 " transform="matrix(16.666667,0,0,16.666667,0,0)"/>
<path style="fill:none;stroke-width:2;stroke-linecap:round;stroke-linejoin:round;stroke:rgb(0%,0%,0%);stroke-opacity:1;stroke-miterlimit:4;" d="M 22.000078 18 L 10.999922 18 C 9.895547 18 9 18.895547 9 19.999922 C 9 21.104531 9.895547 22.000078 10.999922 22.000078 L 21.499922 22.000078 C 21.77625 22.000078 22.000078 21.77625 22.000078 21.499922 L 22.000078 6.499922 C 22.000078 6.223828 21.77625 6 21.499922 6 L 10.999922 6 C 9.895547 6 9 6.895547 9 7.999922 L 9 19.999922 " transform="matrix(16.666667,0,0,16.666667,0,0)"/>
<path style="fill:none;stroke-width:2;stroke-linecap:round;stroke-linejoin:round;stroke:rgb(0%,0%,0%);stroke-opacity:1;stroke-miterlimit:4;" d="M 4.999922 13.999922 L 4.000078 13.999922 C 2.895469 13.999922 1.999922 14.895469 1.999922 16.000078 C 1.999922 17.104453 2.895469 18 4.000078 18 L 4.999922 18 " transform="matrix(16.666667,0,0,16.666667,0,0)"/>
</g>
</svg>
