<?xml version="1.0" encoding="UTF-8"?>
<svg xmlns="http://www.w3.org/2000/svg" xmlns:xlink="http://www.w3.org/1999/xlink" width="400px" height="400px" viewBox="0 0 400 400" version="1.1">
<g id="surface1">
<path style="fill:none;stroke-width:2;stroke-linecap:round;stroke-linejoin:round;stroke:rgb(0%,0%,0%);stroke-opacity:1;stroke-miterlimit:4;" d="M 12.220078 1.999922 L 11.779922 1.999922 C 10.675547 1.999922 9.78 2.895469 9.78 4.000078 L 9.78 4.180078 C 9.779297 4.89375 9.398203 5.553047 8.779922 5.91 L 8.350078 6.160078 C 7.731094 6.517266 6.968906 6.517266 6.349922 6.160078 L 6.199922 6.079922 C 5.244375 5.528672 4.022812 5.855391 3.469922 6.81 L 3.250078 7.189922 C 2.698828 8.145703 3.025313 9.367031 3.979922 9.919922 L 4.129922 10.02 C 4.745156 10.375078 5.125781 11.029687 5.13 11.740078 L 5.13 12.250078 C 5.132812 12.967266 4.75125 13.63125 4.129922 13.990078 L 3.979922 14.080078 C 3.025313 14.632969 2.698828 15.854297 3.250078 16.810078 L 3.469922 17.19 C 4.022812 18.144609 5.244375 18.471328 6.199922 17.920078 L 6.349922 17.839922 C 6.968906 17.482734 7.731094 17.482734 8.350078 17.839922 L 8.779922 18.09 C 9.398203 18.446953 9.779297 19.10625 9.78 19.819922 L 9.78 19.999922 C 9.78 21.104531 10.675547 22.000078 11.779922 22.000078 L 12.220078 22.000078 C 13.324453 22.000078 14.22 21.104531 14.22 19.999922 L 14.22 19.819922 C 14.220703 19.10625 14.601797 18.446953 15.220078 18.09 L 15.649922 17.839922 C 16.268906 17.482734 17.031094 17.482734 17.650078 17.839922 L 17.800078 17.920078 C 18.755625 18.471328 19.977187 18.144609 20.530078 17.19 L 20.749922 16.8 C 21.301172 15.844453 20.974687 14.622891 20.020078 14.07 L 19.870078 13.990078 C 19.24875 13.63125 18.867188 12.967266 18.87 12.250078 L 18.87 11.749922 C 18.867188 11.032734 19.24875 10.36875 19.870078 10.009922 L 20.020078 9.919922 C 20.974687 9.367031 21.301172 8.145703 20.749922 7.189922 L 20.530078 6.81 C 19.977187 5.855391 18.755625 5.528672 17.800078 6.079922 L 17.650078 6.160078 C 17.031094 6.517266 16.268906 6.517266 15.649922 6.160078 L 15.220078 5.91 C 14.601797 5.553047 14.220703 4.89375 14.22 4.180078 L 14.22 4.000078 C 14.22 2.895469 13.324453 1.999922 12.220078 1.999922 Z M 12.220078 1.999922 " transform="matrix(16.666667,0,0,16.666667,0,0)"/>
<path style="fill:none;stroke-width:2;stroke-linecap:round;stroke-linejoin:round;stroke:rgb(0%,0%,0%);stroke-opacity:1;stroke-miterlimit:4;" d="M 15 12 C 15 10.343203 13.656797 9 12 9 C 10.343203 9 9 10.343203 9 12 C 9 13.656797 10.343203 15 12 15 C 13.656797 15 15 13.656797 15 12 Z M 15 12 " transform="matrix(16.666667,0,0,16.666667,0,0)"/>
</g>
</svg>
